<svg xmlns="http://www.w3.org/2000/svg" width="53" height="48" viewBox="0 0 53 48">
  <path fill="#222221" fill-rule="evenodd" d="M16.5280052,27 C20.8143629,27 25.4274484,29.0167643 25.4274484,33.4444032 L25.4274484,33.4444032 L18.6755923,33.4444032 C18.6755923,32.4271938 17.6741456,31.5683555 16.4885905,31.5683555 C15.9165575,31.5683555 14.5852713,31.6898598 14.5852713,32.8140346 C14.5852713,33.2559157 14.848728,33.5861583 15.3077028,33.7201246 C15.9290043,33.9018619 16.7696801,34.0789259 17.6596244,34.2658556 C18.8866689,34.5234033 20.2770772,34.8162599 21.3334971,35.1797344 C22.4282946,35.5567094 26,37.0781099 26,40.8452637 C26,45.760997 21.0212905,48 16.3957583,48 C14.2787695,48 11.9538159,47.2870707 10.1754831,46.0938358 C8.12798886,44.7188636 7,42.8547585 7,40.8452637 L7,40.8452637 L13.9504859,40.7990505 C14.0531717,41.4948446 14.4079048,42.0166902 15.0043127,42.349529 C15.6157605,42.6906758 16.273365,42.7275425 16.5280052,42.7275425 C17.1000382,42.7275425 17.8592914,42.5421705 18.2669232,42.1272903 C18.4531062,41.9382835 18.5423081,41.724872 18.5381592,41.4766709 C18.5241566,40.5986203 17.9370837,40.3805356 14.9477836,39.6582598 C9.8378644,38.4240042 7.65760454,36.6216898 7.65760454,33.6328907 C7.65760454,31.5262963 8.62741566,29.8709295 10.3466263,28.7010608 C11.9086964,27.6386767 14.0059777,27 16.5280052,27 Z M37.0354862,27 C39.9301054,27 42.5650185,27.8011819 44.2189365,29.3817377 C45.6951607,30.7925032 46.6146466,32.7806597 46.9526851,35.291168 L46.9526851,35.291168 L47,35.6458065 L39.7697605,35.6458065 L39.7129827,35.39865 C39.2839944,33.5247255 38.0995453,32.9343537 37.1590306,32.9343537 C34.897905,32.9343537 34.406356,36.1105232 34.406356,37.5 C34.406356,38.8858422 34.8963278,42.0651271 37.1590306,42.0651271 C38.126357,42.0651271 39.2839944,41.4747552 39.7129827,39.6008308 L39.7129827,39.6008308 L39.7697605,39.3541935 L47,39.3541935 L46.9526851,39.7083127 C46.6146466,42.2193403 45.6951607,44.2074968 44.2189365,45.6182623 C42.5650185,47.1988181 39.8948821,48 36.9997371,48 C33.8180743,48 31.5169939,46.9314113 29.6580448,44.9095045 C27.9441947,43.046484 27,40.4144743 27,37.5 C27,34.5855257 27.9441947,31.953516 29.6580448,30.089457 C31.5169939,28.0685887 33.8532976,27 37.0354862,27 Z M36.9168367,0 C42.0397959,0 46.2071429,4.22980152 46.2071429,9.42890018 L46.2071429,9.42890018 L46.2071429,24.7988877 C49.5,24.7947454 51.9581633,23.3009301 51.9581633,23.3009301 L51.9581633,23.3009301 L53,25.233311 C53,25.233311 50.0678571,27 46.1954082,27 C41.9770408,27 40.2602041,25.0774571 36.3586735,25.0774571 C32.4571429,25.0774571 31.0943878,27 26.5142857,27 C21.9341837,27 20.6096939,25.0795282 16.7076531,25.0795282 C12.8061224,25.0795282 11.0561224,26.9979289 6.8372449,26.9979289 C2.75102041,26.9979289 0,25.2923387 0,25.2923387 L0,25.2923387 L1.04591837,23.3625467 C1.04591837,23.3625467 3.52653061,24.7988877 6.825,24.7988877 L6.825,24.7988877 L6.84285714,24.7983699 L6.84285714,0.592866047 L16.2454082,0.592866047 L16.2454082,2.77792693 C17.9826531,1.00088216 20.3295918,0 22.8280612,0 C25.5647959,0 28.1045918,1.18987439 29.8734694,3.28225141 C31.6433673,1.18987439 34.1816327,0 36.9168367,0 Z M33.4997502,8 C32.1214907,8 31,9.18154008 31,10.6335976 L31,10.6335976 L31,24 C32.4097312,23.5158054 33.8529324,23.0352949 35.871116,23.0352949 C35.9150764,23.0352949 35.9560396,23.038979 36,23.0395053 L36,23.0395053 L36,10.6335976 C36,9.18154008 34.8785093,8 33.4997502,8 Z M19.5002498,8 C18.1214907,8 17,9.18220116 17,10.6355977 L17,10.6355977 L17,23.0326488 C17.0394645,23.0321222 17.0759317,23.0289626 17.1153961,23.0289626 C19.1420721,23.0289626 20.5867719,23.5134281 22,24 L22,24 L22,10.6355977 C22,9.18220116 20.8785093,8 19.5002498,8 Z"/>
</svg>
